#!OML:ASF H:\ManfredETheater\Project 1\Capture day 1\Session 1\subject.ASF
:FULLY-SPECIFIED
:DEGREES
167
root 0.945098 16.5212 29.7204 -160.241 -2.89869 176.176
lowerback 11.916 -1.34931 -2.91898
upperback -0.423607 -2.1126 2.24743
thorax -6.95514 -0.911076 4.40909
lowerneck -15.8358 -0.371876 -1.47835
upperneck 10.8114 0.0129193 -1.15897
head 5.85968 -0.141489 -0.127311
rclavicle 1.43125e-014 1.27222e-014
rhumerus -34.1564 -4.16478 -82.0342
rradius 41.623
rwrist -3.64644
rhand -20.2394 -13.1032
rfingers 7.12502
rthumb 6.1087 -42.9951
lclavicle 1.43125e-014 1.27222e-014
lhumerus -35.9776 -4.21502 90.9049
lradius 41.0868
lwrist -7.38545
lhand -10.738 11.0787
lfingers 7.12502
lthumb 15.2728 40.4949
rfemur -48.6187 -6.35544 17.2869
rtibia 57.6351
rfoot -22.624 -2.49228
rtoes 2.18912
lfemur -16.0564 -5.95239 -26.1554
ltibia 32.832
lfoot -32.267 6.29051
ltoes 2.4218
168
root 0.955117 16.4988 29.6171 -159.81 -2.70897 176.204
lowerback 12.0231 -1.36013 -2.85345
upperback -0.390883 -2.12119 2.27602
thorax -6.98117 -0.918187 4.40772
lowerneck -15.7521 -0.310263 -1.43745
upperneck 10.3666 0.0767545 -1.16097
head 5.70462 -0.105289 -0.127872
rclavicle -2.74323e-014 1.51076e-014
rhumerus -34.2531 -3.9659 -82.1673
rradius 42.2064
rwrist -3.5996
rhand -20.0472 -13.2459
rfingers 7.12502
rthumb 6.29424 -43.1323
lclavicle -2.74323e-014 1.51076e-014
lhumerus -35.9705 -4.58877 91.189
lradius 41.2514
lwrist -7.12793
lhand -10.8872 11.0898
lfingers 7.12502
lthumb 15.1292 40.5168
rfemur -49.0561 -6.30265 17.396
rtibia 58.231
rfoot -22.9434 -2.44797
rtoes 1.6528
lfemur -16.0642 -5.94687 -26.1211
ltibia 32.6916
lfoot -32.4722 6.542
ltoes 2.13704
169
root 0.965169 16.4751 29.5114 -159.368 -2.49768 176.24
lowerback 12.1237 -1.36817 -2.79
upperback -0.362132 -2.12594 2.30477
thorax -7.00808 -0.9232 4.4069
lowerneck -15.6648 -0.24262 -1.39058
upperneck 9.91539 0.149099 -1.16721
head 5.54738 -0.0644941 -0.1301
rclavicle 1.98785e-014 6.36111e-015
rhumerus -34.3732 -3.75359 -82.3062
rradius 42.8222
rwrist -3.54967
rhand -19.8499 -13.409
rfingers 7.12502
rthumb 6.48468 -43.2897
lclavicle 1.98785e-014 6.36111e-015
lhumerus -35.9663 -4.97755 91.4826
lradius 41.4435
lwrist -6.8655
lhand -11.0238 11.0817
lfingers 7.12502
lthumb 14.9976 40.5186
rfemur -49.5131 -6.23688 17.5101
rtibia 58.85
rfoot -23.2511 -2.39874
rtoes 1.07996
lfemur -16.0737 -5.93893 -26.0866
ltibia 32.5524
lfoot -32.6771 6.80116
ltoes 1.85715
170
root 0.97527 16.4501 29.4032 -158.916 -2.26343 176.289
lowerback 12.2204 -1.37319 -2.72631
upperback -0.337163 -2.12626 2.33441
thorax -7.0372 -0.925888 4.4061
lowerneck -15.5787 -0.169307 -1.33913
upperneck 9.45903 0.229759 -1.17668
head 5.38924 -0.0191853 -0.133522
rclavicle -6.75868e-015 -7.95139e-016
rhumerus -34.5134 -3.52144 -82.4562
rradius 43.4632
rwrist -3.52897
rhand -19.6845 -13.5304
rfingers 7.12502
rthumb 6.64444 -43.4062
lclavicle -6.75868e-015 -7.95139e-016
lhumerus -35.9663 -5.37717 91.7851
lradius 41.6751
lwrist -6.58768
lhand -11.1484 11.0612
lfingers 7.12502
lthumb 14.8775 40.507
rfemur -49.9893 -6.15397 17.632
rtibia 59.4906
rfoot -23.5418 -2.34579
rtoes 0.481
lfemur -16.0856 -5.92697 -26.0486
ltibia 32.417
lfoot -32.8825 7.06948
ltoes 1.57023
171
root 0.985667 16.424 29.2922 -158.461 -2.01514 176.349
lowerback 12.3158 -1.37937 -2.66443
upperback -0.313719 -2.12812 2.36592
thorax -7.06692 -0.929212 4.40863
lowerneck -15.4842 -0.089159 -1.28216
upperneck 8.99261 0.320093 -1.19118
head 5.22708 0.0313101 -0.138756
rclavicle -3.53837e-014 -1.59028e-015
rhumerus -34.6852 -3.26211 -82.6194
rradius 44.1363
rwrist -3.55745
rhand -19.5729 -13.5848
rfingers 7.12502
rthumb 6.75217 -43.4571
lclavicle -3.53837e-014 -1.59028e-015
lhumerus -35.9788 -5.7809 92.0937
lradius 41.9573
lwrist -6.28993
lhand -11.274 11.0114
lfingers 7.12502
lthumb 14.7565 40.4661
rfemur -50.4704 -6.05916 17.7606
rtibia 60.1503
rfoot -23.8221 -2.28643
rtoes -0.121721
lfemur -16.0911 -5.90484 -26.006
ltibia 32.2881
lfoot -33.0908 7.33583
ltoes 1.26689
172
root 0.996438 16.3967 29.1786 -158 -1.75138 176.424
lowerback 12.404 -1.38472 -2.59899
upperback -0.288636 -2.12822 2.39751
thorax -7.09109 -0.932024 4.40854
lowerneck -15.3934 -0.00408093 -1.22041
upperneck 8.51754 0.417441 -1.20643
head 5.06333 0.0859466 -0.14463
rclavicle -3.18055e-015 1.35174e-014
rhumerus -34.8732 -2.98932 -82.7979
rradius 44.8256
rwrist -3.64754
rhand -19.5405 -13.5517
rfingers 7.12502
rthumb 6.78338 -43.423
lclavicle -3.18055e-015 1.35174e-014
lhumerus -35.9991 -6.19397 92.4051
lradius 42.2995
lwrist -5.96487
lhand -11.4234 10.9254
lfingers 7.12502
lthumb 14.6126 40.3906
rfemur -50.9595 -5.94747 17.8992
rtibia 60.8253
rfoot -24.0883 -2.22285
rtoes -0.736885
lfemur -16.096 -5.86895 -25.9545
ltibia 32.1662
lfoot -33.2963 7.5994
ltoes 0.936945
173
root 1.00757 16.3682 29.0621 -157.533 -1.47333 176.51
lowerback 12.4928 -1.39087 -2.53672
upperback -0.268749 -2.12943 2.4309
thorax -7.12088 -0.934955 4.4126
lowerneck -15.3008 0.0878099 -1.15567
upperneck 8.04026 0.525054 -1.22535
head 4.89913 0.146009 -0.151538
rclavicle -1.19271e-015 -2.22639e-014
rhumerus -35.0958 -2.68467 -82.9956
rradius 45.5306
rwrist -3.86726
rhand -19.6683 -13.3925
rfingers 7.12502
rthumb 6.66004 -43.2678
lclavicle -1.19271e-015 -2.22639e-014
lhumerus -36.0384 -6.61031 92.7217
lradius 42.7075
lwrist -5.60565
lhand -11.6145 10.7968
lfingers 7.12502
lthumb 14.4285 40.2752
rfemur -51.4536 -5.81816 18.0394
rtibia 61.5121
rfoot -24.3376 -2.15281
rtoes -1.36936
lfemur -16.0987 -5.82222 -25.8992
ltibia 32.052
lfoot -33.4971 7.86207
ltoes 0.567519
